<?xml version="1.0" encoding="UTF-8"?>
<svg width="142px" height="35px" viewBox="0 0 142 35" version="1.1" xmlns="http://www.w3.org/2000/svg" xmlns:xlink="http://www.w3.org/1999/xlink">
    <!-- Generator: Sketch 60 (88103) - https://sketch.com -->
    <title>na_top_logo</title>
    <desc>Created with Sketch.</desc>
    <g id="控件" stroke="none" stroke-width="1" fill="none" fill-rule="evenodd">
        <g id="logo">
            <g id="导航_顶部_logo" transform="translate(1.000000, 1.000000)">
                <path d="M0.0506692308,21.3130346 C0.0996692308,23.5586885 1.14428462,26.0393808 2.15955385,27.4364192 C3.27282308,28.9678038 4.67928462,30.2041115 6.59566923,31.1989192 C8.42428462,32.1479577 10.5337077,32.7871115 12.8377846,33.1519192 C15.5605154,33.5824192 17.6912077,33.5038038 20.3802846,33.0738423 C25.7789,32.2112269 30.9982077,30.1944192 34.8554769,27.0810346 C35.8594385,26.2717269 36.1262462,26.0498808 37.0416308,25.1449962 C37.2271308,24.96165 37.3275538,24.8547654 37.5472462,24.6555346 C37.8226692,24.40515 38.7507077,23.2848808 38.9973231,22.9784962 C39.3844769,22.4987269 40.3965154,21.1162269 40.6256308,20.4714192 L31.5264385,20.4609192 C31.3810538,20.5500346 31.0116692,21.1485346 30.8891692,21.3151885 C29.5252462,23.1828423 27.3129769,25.0650346 25.2603615,26.0625346 C22.2019,27.54815 19.5984385,28.3744192 16.0655923,28.75915 C11.0000154,29.3108038 5.74974615,28.6342269 2.40805385,24.9608423 L1.72313077,24.1771115 C1.27351538,23.6179192 0.897130769,23.0129577 0.554938462,22.3603423 L0.121476923,21.4104962 C0.115284615,21.3999962 0.106130769,21.3873423 0.0996692308,21.37765 C0.0934769231,21.3676885 0.0808230769,21.3528808 0.0759769231,21.3453423 C0.0703230769,21.3375346 0.0598230769,21.3235346 0.0506692308,21.3130346" id="Fill-1" fill="#1871FF"></path>
                <path d="M9.50045385,5.20533462 C10.1110692,5.01848846 11.4106462,4.49160385 12.2716462,4.20998846 C17.1643769,2.61345 23.4678769,1.46895 28.2881846,3.67906538 C29.5702615,4.26625769 30.6092231,5.10221923 31.4971462,6.15437308 C31.6734923,6.36302692 32.1737231,7.01295 32.2684923,7.27195 L41.4969154,7.27760385 C41.2783,6.70252692 40.2056846,5.48210385 39.6788,4.93852692 C38.5873385,3.80964231 37.0564923,2.72625769 35.6578385,1.99287308 C33.1001462,0.651296154 29.8744923,-0.0667423077 26.5039923,0.00514230769 C23.2008,0.0751423077 20.0516077,0.817142308 17.1918385,1.78933462 C15.1357231,2.48825769 13.2406077,3.32071923 11.3172231,4.25360385 C10.6953,4.55487308 10.0661077,4.92452692 9.50045385,5.20533462" id="Fill-3" fill="#1871FF"></path>
                <path d="M16.3935692,12.3361269 C16.8388769,12.2243962 17.3875692,12.3762423 17.4435692,12.7238192 C17.4556846,12.79705 16.7371077,14.6087038 16.5486462,14.7977038 C15.9334538,15.4137038 14.7884154,15.7305885 14.5523,14.9753962 C14.3051462,14.1808962 15.2119154,12.6320115 16.3935692,12.3361269 M17.9236077,18.9478962 L17.6783385,17.9412423 C16.8725308,18.1652423 16.6232231,18.3808962 15.5126462,18.4786269 C13.2330692,18.6789346 10.6753769,17.7177808 10.9058385,14.97055 C11.3218,10.01455 17.7865692,7.81224231 20.5297615,9.81558846 C22.2444923,11.0683192 21.7569154,14.0944731 19.9802615,15.2107038 C19.5573,15.4769731 18.1462615,15.9174346 18.1573,15.0042038 C18.1645692,14.4288577 19.7126462,11.2058962 19.7126462,11.2058962 L18.3139923,11.2072423 L18.0851462,11.6323577 C17.9747615,11.3884346 17.7569538,11.04705 16.7118,11.0976654 C13.7656077,11.2417038 11.5253385,15.4831654 13.7184923,16.41605 C14.2593769,16.6457038 14.9168385,16.6072038 15.4676846,16.4190115 C16.1229923,16.1950115 16.2936846,15.9987423 16.7608,15.6778192 C16.8781846,15.8205115 16.9414538,16.9127808 18.8866462,16.6761269 C21.2989538,16.3832038 23.2223385,14.0487038 22.9918769,11.4258577 C22.5627231,6.54066538 14.0803385,7.08020385 10.9136462,11.3948962 C7.74668462,15.7093192 9.57099231,20.0789346 15.3721077,19.6096654 C16.0702231,19.5533962 17.4311846,19.2696269 17.9236077,18.9478962" id="Fill-5" fill="#F53A60"></path>
                <path d="M27.0575038,16.9252731 L25.9474654,16.9196192 L25.9762731,16.7664269 C26.1760423,15.7234269 26.63185,13.5273115 27.03435,11.5899269 C27.3504269,10.0676962 27.6756577,8.49969615 27.7628885,8.03123462 C27.1608885,8.03527308 25.4100808,8.03123462 24.9529269,8.03042692 L24.6346962,9.60111923 C24.0200423,12.6310423 22.7947731,18.6736577 22.5869269,19.7099269 C24.1099654,19.7091192 29.5950038,19.7034654 30.6584654,19.6994269 L31.2155038,16.9406192 C30.0171577,16.9406192 28.4596577,16.9330808 27.0575038,16.9252731" id="Fill-7" fill="#1871FF"></path>
                <path d="M7.06173462,7.97927308 L5.48027308,15.6213885 C5.27538846,16.61135 4.65427308,17.1788885 3.77685,17.1788885 C3.42496538,17.1788885 3.16865769,17.0841192 3.01546538,16.8978115 C2.83211923,16.6751577 2.78500385,16.3022731 2.87923462,15.82035 L3.01950385,15.1459269 L0.245619231,15.1459269 L0.109388462,15.8041962 C-0.133726923,16.9715808 0.0291576923,17.9157731 0.592657692,18.6090423 C1.17500385,19.3243885 2.14504231,19.7021192 3.39911923,19.7021192 C5.91050385,19.7021192 7.70519615,18.2776192 8.19842692,15.8906192 L9.83292692,7.97927308 L7.06173462,7.97927308 Z" id="Fill-9" fill="#1871FF"></path>
                <path d="M40.4492308,15.6842808 L40.4069615,15.7529346 C39.8297308,16.7006269 38.8271154,17.35055 37.7173462,17.3836654 C36.9015769,17.4087038 36.2702308,17.1117423 35.8836154,16.5293962 C35.4819231,15.9244346 35.3591538,15.0408192 35.5290385,13.9722423 C35.7040385,12.8708192 36.1121923,11.9567808 36.7090769,11.3297423 C37.2795769,10.7317808 38.0242692,10.39955 38.8629231,10.3699346 C39.9616538,10.3276654 40.6177692,10.7366269 40.9909231,11.6878192 L41.0498846,11.8402038 L43.7468447,11.8563577 C43.7468447,11.8563577 43.75,11.2783192 43.7141923,11.0866269 C43.3483077,9.11531923 41.6510769,8.00043462 39.2282692,8.08281923 C37.4419231,8.14743462 35.8949231,8.81970385 34.7563462,10.0258577 C33.7693462,11.0710115 33.1132308,12.4691269 32.8604231,14.0691654 C32.4269615,16.8088577 33.3253846,19.6777808 37.0983846,19.6777808 C37.1896538,19.6777808 37.2830769,19.6756269 37.3773077,19.6729346 C39.5626538,19.5935115 41.3511538,18.6331654 42.4956538,16.9458962 C42.7568077,16.5600885 42.9514615,16.1317423 43.1038462,15.6912808 L40.4492308,15.6842808 Z" id="Fill-11" fill="#1871FF"></path>
                <path d="M82.0789038,27.5738346 L82.0640962,30.60295 C82.0640962,30.60295 95.2483269,30.6147962 95.7940577,30.6147962 C96.5414423,30.6147962 109.545827,30.5902962 109.545827,30.5902962 L109.551481,27.5851423 L100.460365,27.5633346 L105.528365,11.8981423 L102.130404,11.8938346 C102.130404,11.8938346 96.8795962,27.4524115 96.76625,27.5245654 C96.6130577,27.6231038 90.94575,27.5633346 90.4867115,27.5633346 C89.8262885,27.5633346 82.0789038,27.5738346 82.0789038,27.5738346" id="Fill-13" fill="#1871FF"></path>
                <path d="M62.9219769,18.5840577 C62.7967846,18.4335577 62.3113615,17.3321346 62.2804,17.1067885 L69.7168231,17.1081346 C69.6734769,17.2850192 69.0100923,18.4680192 68.8929769,18.5932115 L62.9219769,18.5840577 Z M58.9901308,14.8194038 L59.0019769,13.6154038 L72.4699769,13.6372115 L72.4602846,14.8264038 L58.9901308,14.8194038 Z M56.0627846,17.0925192 L58.9171692,17.1073269 C59.0547462,17.4158654 59.4957462,18.3169808 59.5302077,18.5924038 L52.2892462,18.59375 L52.2822462,21.11375 L58.1280538,21.1290962 L57.6062846,22.3724038 L53.2361308,22.3710577 L53.2186308,24.7720577 L56.5005538,24.7806731 C56.4437462,24.9871731 55.6212462,26.4111346 54.9368615,27.07425 C54.2527462,27.7373654 53.2714,27.8959423 53.2714,27.8959423 L53.2705923,30.5979423 C53.2705923,30.5979423 54.1065538,30.6609423 55.2502462,30.0616346 C55.6161308,29.8699423 55.9518615,29.6241346 56.2700923,29.3600192 C56.6327462,29.0592885 56.9754769,28.7523654 57.2479385,28.4551346 C58.0467462,27.5849808 58.9965923,26.12575 59.5008615,24.7868654 L62.6333615,24.8043654 L62.6333615,27.6011346 C62.6333615,27.8735962 62.4117846,28.09275 62.1393231,28.09275 L59.3097077,28.09275 L59.3097077,30.5979423 L63.3414385,30.5979423 C64.5944385,30.5979423 65.6115923,29.5826731 65.6132077,28.3294038 C65.6159,25.9712115 65.6207462,22.5910192 65.6207462,22.3740192 L60.3831308,22.37025 L60.8518615,21.14175 L79.2432846,21.1282885 L79.2602462,18.6085577 L72.2901308,18.5924038 C72.3359,18.3296346 72.5485923,18.0628269 72.6813231,17.8232115 C72.7580538,17.6848269 72.8178231,17.57525 72.8824385,17.4586731 C72.9780154,17.2866346 73.0278231,17.1347885 73.1570538,17.1067885 L75.3733615,17.1059808 L75.3914,11.3541346 L56.0740923,11.3479423 L56.0627846,17.0925192 Z" id="Fill-15" fill="#1871FF"></path>
                <path d="M64.2365769,4.31073462 L53.4802692,4.32823462 L53.4619615,6.80031154 L64.2247308,6.80031154 L64.2403462,7.91088846 L54.5108846,7.92865769 L54.5046923,10.3188885 L77.0821154,10.3406962 L77.0969231,7.91788846 C76.1050769,7.91950385 73.3486923,7.92704231 72.2098462,7.92704231 C71.5825385,7.92704231 67.5777308,7.97065769 67.3106538,7.89985 L67.3085,6.82077308 L78.1006154,6.79977308 L78.1097692,4.33038846 L67.3241154,4.32823462 L67.3093077,2.78931154 L64.2661923,2.77665769 L64.2365769,4.31073462 Z" id="Fill-17" fill="#1871FF"></path>
                <path d="M93.0929192,2.77132692 C93.1012654,2.92801923 93.7614192,6.68701923 93.7460731,6.95248077 L83.0831885,6.95382692 L83.0732269,9.98994231 L108.487804,9.99505769 L108.50665,6.95598077 L97.56215,6.95328846 L96.9149192,2.77132692 L93.0929192,2.77132692 Z" id="Fill-19" fill="#1871FF"></path>
                <path d="M69.7405692,24.7437615 L74.4801077,24.7437615 L74.4723,27.0631846 L69.7456846,27.0639923 L69.7405692,24.7437615 Z M74.4914154,30.5750308 L77.2397231,30.5785308 C77.2830692,30.4724538 77.3342231,22.7099923 77.2550692,22.3742615 L66.9454154,22.3659154 L66.9370692,30.5946846 L69.7012615,30.5989923 L69.7069154,29.5086077 L74.4836077,29.5086077 L74.4914154,30.5750308 Z" id="Fill-21" fill="#1871FF"></path>
                <polygon id="Fill-23" fill="#1871FF" points="131.097319 23.9135885 134.123473 23.9205885 134.145281 5.47855 131.085204 5.46858846"></polygon>
                <polygon id="Fill-25" fill="#1871FF" points="86.9668692 11.9196538 90.0982923 24.6822692 93.7899846 24.6865769 90.5285231 11.9196538"></polygon>
                <path d="M139.405862,2.78449231 L136.326669,2.78233846 L136.329631,26.3903769 C136.329631,27.0796077 135.775554,27.6401462 135.086323,27.6458 C133.685515,27.6554923 131.547823,27.6659923 131.106015,27.6393385 C131.127823,27.9901462 131.111669,30.5968385 131.111669,30.5968385 L137.091015,30.5890308 C138.3669,30.5879538 139.400746,29.5530308 139.401554,28.2774154 L139.405862,2.78449231 Z" id="Fill-27" fill="#1871FF"></path>
                <path d="M116.466296,12.4648192 C116.466296,12.4648192 118.792181,9.82339615 119.434835,8.99605 C120.050296,8.20424231 121.610488,5.88616538 121.610488,5.88616538 C121.610488,5.88616538 123.796642,8.61239615 124.401604,9.41174231 C124.630988,9.71381923 126.666373,12.21605 126.768142,12.4648192 L116.466296,12.4648192 Z M126.822258,26.4069346 C126.822258,27.1002038 126.259565,27.6620885 125.566296,27.66155 L119.793719,27.6585885 C118.438142,27.6585885 118.535873,26.7903192 118.535873,25.5604731 L118.542065,15.3216269 L123.743065,15.3216269 L123.757335,20.1553962 C123.757873,20.4399731 123.528219,20.6698962 123.24445,20.6690885 L119.922412,20.6599346 L119.944219,23.8998577 L124.500412,23.90255 C125.780335,23.9038962 126.81795,22.8662808 126.81445,21.5858192 C126.806642,18.5017808 126.798296,13.3457423 126.833565,12.5673962 C127.014758,12.6201654 129.612296,15.8436654 129.860258,16.0213577 L129.869412,11.2306654 C126.413296,7.73981923 123.228835,2.77493462 123.228835,2.77493462 L120.110604,2.77493462 C119.616027,3.70970385 116.889796,8.81889615 112.364565,11.9632423 C112.35595,13.4248962 112.354065,16.0264731 112.354065,16.0264731 L115.349527,13.6225115 C115.436488,14.1477808 115.375104,24.6927423 115.375104,25.9936654 C115.375104,27.9832808 115.008681,30.5972423 118.277412,30.5972423 L127.549988,30.5934731 C128.82695,30.5929346 129.861873,29.5582808 129.861873,28.28105 L129.861873,24.68655 L126.822258,24.68655 L126.822258,26.4069346 Z" id="Fill-29" fill="#1871FF"></path>
            </g>
        </g>
    </g>
</svg>